# xmcd CD database file
#
# Track frame offsets:
#	150
#	21507
#	55883
#	71234
#	99300
#	125297
#	153387
#	175804
#	194835
#	212069
#	228139
#	241162
#
# Disc length: 3560 seconds
#
# Revision: 0
# Processed by: cddbd v1.5.2PL0 Copyright (c) Steve Scherf et al.
# Submitted via: CDex 1.51
#
DISCID=a50de60c
DTITLE=Doug Smith - Confirmation
DYEAR=2001
DGENRE=New Age
TTITLE0=Confirmation
TTITLE1=Passion
TTITLE2=Swinney Blues
TTITLE3=Olayinka's Dream
TTITLE4=Tamara's Song
TTITLE5=Can You Hear What I Feel
TTITLE6=My Heart Belongs To You
TTITLE7=Angelic Ascention
TTITLE8=Love Endures
TTITLE9=Arrival
TTITLE10=Strippin' Cotton
TTITLE11=The Leavin' Song
EXTD=YEAR: 2001
EXTT0=
EXTT1=
EXTT2=
EXTT3=
EXTT4=
EXTT5=
EXTT6=
EXTT7=
EXTT8=
EXTT9=
EXTT10=
EXTT11=
PLAYORDER=
